<?xml version="1.0" encoding="UTF-8"?>
<svg version="1.1" xmlns="http://www.w3.org/2000/svg" width="618" height="459">
<path d="M0 0 C203.94 0 407.88 0 618 0 C618 151.47 618 302.94 618 459 C414.06 459 210.12 459 0 459 C0 307.53 0 156.06 0 0 Z " fill="#FAFDFE" transform="translate(0,0)"/>
<path d="M0 0 C6.80275795 4.9907138 10.52772768 10.79373661 14.25 18.23828125 C21.84 18.56828125 29.43 18.89828125 37.25 19.23828125 C37.52263672 23.70101562 37.52263672 23.70101562 37.80078125 28.25390625 C38.05261116 32.33216173 38.30713956 36.41024538 38.5625 40.48828125 C38.62902771 41.55071045 38.69555542 42.61313965 38.76409912 43.70776367 C39.69472673 58.47427814 40.77702631 73.21662462 42.06942749 87.95559692 C42.94675657 97.99856973 43.64175005 108.02649962 43.95947266 118.10546875 C44.08185745 121.93168304 44.27646953 125.67955281 44.7734375 129.4765625 C45.270809 133.50872823 45.29783144 137.47503097 45.27978516 141.53588867 C45.27333481 143.42050056 45.27333481 143.42050056 45.26675415 145.34318542 C45.26122528 146.29856705 45.25569641 147.25394867 45.25 148.23828125 C26.95233031 148.37843437 8.65479989 148.4842437 -9.64329052 148.54915428 C-18.13941069 148.58009438 -26.63519739 148.62227738 -35.13110352 148.69091797 C-42.53604155 148.75071584 -49.94073808 148.7894293 -57.34591085 148.80281222 C-61.26715286 148.81063554 -65.187704 148.82902373 -69.10872459 148.87266159 C-72.8000262 148.91340975 -76.49035291 148.9259465 -80.18185806 148.91692734 C-82.18131702 148.9193633 -84.18066992 148.95164079 -86.17985535 148.98480225 C-94.73250441 148.92568555 -94.73250441 148.92568555 -97.69088173 146.92705154 C-99.5325672 144.81927701 -100.75 143.097623 -100.75 140.23828125 C-101.65492188 140.45484375 -101.65492188 140.45484375 -102.578125 140.67578125 C-103.37734375 140.86140625 -104.1765625 141.04703125 -105 141.23828125 C-105.78890625 141.42390625 -106.5778125 141.60953125 -107.390625 141.80078125 C-109.75 142.23828125 -109.75 142.23828125 -113.75 142.23828125 C-113.10593303 136.55826989 -112.18091826 131.0187465 -111.0078125 125.42578125 C-110.83877411 124.61262451 -110.66973572 123.79946777 -110.49557495 122.96166992 C-110.13921768 121.25371228 -109.78113048 119.54611475 -109.42138672 117.83886719 C-108.8767991 115.24684424 -108.34247229 112.65284073 -107.80859375 110.05859375 C-107.45895906 108.38919174 -107.1087187 106.71991645 -106.7578125 105.05078125 C-106.60144318 104.28596436 -106.44507385 103.52114746 -106.28396606 102.7331543 C-105.20471715 97.67571384 -103.63486809 93.05424378 -101.75 88.23828125 C-99.31387085 79.71182921 -97.46087143 71.09704885 -95.89233398 62.37426758 C-94.84876622 56.61335471 -93.5999096 50.91025985 -92.30957031 45.20019531 C-90.36132354 36.56583484 -88.56044561 27.90255666 -86.75 19.23828125 C-79.16 19.23828125 -71.57 19.23828125 -63.75 19.23828125 C-63.09 17.58828125 -62.43 15.93828125 -61.75 14.23828125 C-46.95551004 -5.98627426 -21.70615501 -13.90550555 0 0 Z " fill="#1969FC" transform="translate(341.75,106.76171875)"/>
<path d="M0 0 C7.72457978 5.50409953 12.48816584 11.79663207 14.3125 21.25 C15.82180705 39.8446629 13.30411427 55.31674882 1.125 70 C-3.65851089 75.54521645 -9.01093281 81.06771097 -15.6875 84.25 C-19.74137419 84.09597742 -21.78849327 82.66700835 -24.6875 79.9375 C-26.9795497 77.81909043 -29.20988457 75.84732856 -31.6875 73.9375 C-32.3475 73.380625 -33.0075 72.82375 -33.6875 72.25 C-33.6875 71.59 -33.6875 70.93 -33.6875 70.25 C-34.3475 70.25 -35.0075 70.25 -35.6875 70.25 C-35.40323032 72.9384654 -35.11031156 75.62552857 -34.8125 78.3125 C-34.73386719 79.06466797 -34.65523438 79.81683594 -34.57421875 80.59179688 C-34.04143252 85.32539758 -33.12153114 89.68717365 -31.6875 94.25 C-31.378125 95.3225 -31.06875 96.395 -30.75 97.5 C-29.67064416 100.29362687 -28.87821145 101.31206295 -26.6875 103.25 C-22.6875 107.93571429 -22.6875 107.93571429 -22.6875 110.25 C-22.11 110.53875 -21.5325 110.8275 -20.9375 111.125 C-19.55584785 111.81582608 -18.18705136 112.53415304 -16.84375 113.296875 C-12.36667804 115.27587058 -7.18969721 114.96881302 -2.5390625 113.6328125 C4.62756252 110.43190883 10.81317813 104.24864375 14.3125 97.25 C10.6825 97.25 7.0525 97.25 3.3125 97.25 C7.36916529 92.23254556 11.73036354 87.99411155 16.57421875 83.73828125 C20.5745433 80.10317892 24.30860685 76.22704277 28.0625 72.33984375 C30.3125 70.25 30.3125 70.25 32.3125 70.25 C33.79563384 82.31370475 34.59262897 94.09551507 34.3125 106.25 C31.23504092 105.03534783 28.25073196 103.77352768 25.3125 102.25 C25.0340625 103.673125 25.0340625 103.673125 24.75 105.125 C23.21165907 110.57006286 19.66229068 114.78615593 16.3125 119.25 C15.714375 120.136875 15.11625 121.02375 14.5 121.9375 C6.55729749 130.33407122 -3.44774476 135.23700264 -14.96264648 135.72070312 C-28.41466972 135.89783939 -37.46689525 131.8262343 -47.33203125 122.734375 C-55.23512809 114.47678569 -59.72952817 102.05851318 -62.6875 91.25 C-62.86482666 90.65856201 -63.04215332 90.06712402 -63.22485352 89.45776367 C-65.07596899 82.50887226 -65.02498267 75.49362908 -65.00317383 68.35083008 C-65.00004148 66.21577477 -65.02343927 64.08214778 -65.04882812 61.94726562 C-65.09188523 52.0803678 -63.82553263 42.87397813 -61.6875 33.25 C-61.0275 33.25 -60.3675 33.25 -59.6875 33.25 C-59.460625 31.97125 -59.23375 30.6925 -59 29.375 C-56.11486101 16.66049094 -48.15987103 5.71598903 -37.25390625 -1.34375 C-24.94500092 -8.08835566 -11.76897971 -7.34824443 0 0 Z " fill="#F6FBFE" transform="translate(337.6875,111.75)"/>
<path d="M0 0 C4.42552769 3.58257004 7.42614453 7.47488781 8.35546875 13.18359375 C8.97588486 23.66359566 4.00704203 32.78951047 -2.609375 40.60546875 C-7.81771505 45.82231916 -13.88440635 49.92293756 -20 54 C-20.99 54 -21.98 54 -23 54 C-24.02762431 25.05524862 -24.02762431 25.05524862 -18 13 C-17.34 13 -16.68 13 -16 13 C-15.91621094 12.25234375 -15.83242188 11.5046875 -15.74609375 10.734375 C-14.84320915 7.42537385 -13.68985015 6.39749054 -11.0625 4.25 C-10.35222656 3.65703125 -9.64195312 3.0640625 -8.91015625 2.453125 C-5.82393205 0.10532254 -3.87646288 -0.5409018 0 0 Z " fill="#2489FD" transform="translate(324,126)"/>
<path d="M0 0 C3.63 0 7.26 0 11 0 C11 10.89 11 21.78 11 33 C8.03 33 5.06 33 2 33 C2 27.06 2 21.12 2 15 C0.02 20.94 -1.96 26.88 -4 33 C-6.31 33 -8.62 33 -11 33 C-12.65 27.39 -14.3 21.78 -16 16 C-16.33 21.61 -16.66 27.22 -17 33 C-19.64 33 -22.28 33 -25 33 C-25 22.44 -25 11.88 -25 1 C-21.04 1 -17.08 1 -13 1 C-12.15919981 3.41429769 -11.32718598 5.83103993 -10.5 8.25 C-10.26152344 8.93191406 -10.02304687 9.61382812 -9.77734375 10.31640625 C-8.60578713 13.76413003 -8 16.31702904 -8 20 C-7.34 20 -6.68 20 -6 20 C-5.731875 18.72125 -5.46375 17.4425 -5.1875 16.125 C-2.0625 2.0625 -2.0625 2.0625 0 0 Z " fill="#1A41FA" transform="translate(323,287)"/>
<path d="M0 0 C3.96 0 7.92 0 12 0 C12 10.89 12 21.78 12 33 C9.03 33 6.06 33 3 33 C3 27.39 3 21.78 3 16 C2.34 16 1.68 16 1 16 C0.83564453 16.8353125 0.83564453 16.8353125 0.66796875 17.6875 C-0.44275248 23.03341031 -1.97225526 27.93063816 -4 33 C-5.65 33 -7.3 33 -9 33 C-9.81832722 31.10667466 -10.62942268 29.21022267 -11.4375 27.3125 C-11.88996094 26.25675781 -12.34242188 25.20101563 -12.80859375 24.11328125 C-14 21 -14 21 -15 16 C-15.33 21.28 -15.66 26.56 -16 32 C-18.64 32 -21.28 32 -24 32 C-24 21.77 -24 11.54 -24 1 C-20.37 1 -16.74 1 -13 1 C-10.85289032 6.62338249 -8.86763181 12.27789404 -7 18 C-4.73453148 14.60179721 -3.61098372 11.16057722 -2.375 7.3125 C-2.14554687 6.61060547 -1.91609375 5.90871094 -1.6796875 5.18554688 C-1.11570791 3.45835938 -0.55730661 1.72935218 0 0 Z " fill="#1038FA" transform="translate(272,287)"/>
<path d="M0 0 C4.82626694 2.36760265 7.73430831 5.12004868 10 10 C10.79370995 16.49236902 10.86457743 22.4791751 7 28 C4.52488804 30.95416589 2.85916476 32.57120392 -1 33 C-5.64712092 33.37476782 -8.03484806 33.46401536 -12.25 31.4375 C-16.62225499 27.56209217 -18.61661044 24.62093032 -19.453125 18.90234375 C-19.72893382 13.44258287 -19.84166957 9.16079031 -16.25 4.8125 C-11.46116466 0.03575768 -6.57294403 -0.91449656 0 0 Z " fill="#143BFA" transform="translate(224,287)"/>
<path d="M0 0 C3.01125 -0.0825 6.0225 -0.165 9.125 -0.25 C10.06230957 -0.28641602 10.99961914 -0.32283203 11.96533203 -0.36035156 C17.63039899 -0.43516182 20.67553897 0.26963425 25 4 C26.73430205 7.46860409 25.90367044 11.31788015 25 15 C22.9375 17.0625 22.9375 17.0625 21 18 C22.12188841 21.08519311 23.4616463 23.86805649 25.125 26.6875 C27 30 27 30 27 32 C23.7 32 20.4 32 17 32 C16.68546875 31.28972656 16.3709375 30.57945312 16.046875 29.84765625 C15.40492188 28.46900391 15.40492188 28.46900391 14.75 27.0625 C14.33234375 26.14597656 13.9146875 25.22945313 13.484375 24.28515625 C12.06626271 21.53387148 12.06626271 21.53387148 8 21 C8 24.3 8 27.6 8 31 C5.36 31 2.72 31 0 31 C0 20.77 0 10.54 0 0 Z " fill="#123AFA" transform="translate(384,288)"/>
<path d="M0 0 C7.92 0 15.84 0 24 0 C24 2.31 24 4.62 24 7 C19.05 7 14.1 7 9 7 C9 8.98 9 10.96 9 13 C12.96 13 16.92 13 21 13 C21 14.98 21 16.96 21 19 C17.04 19 13.08 19 9 19 C9 21.31 9 23.62 9 26 C13.95 26 18.9 26 24 26 C24 28.31 24 30.62 24 33 C16.08 33 8.16 33 0 33 C0 22.11 0 11.22 0 0 Z " fill="#1B41FA" transform="translate(463,287)"/>
<path d="M0 0 C7.92 0 15.84 0 24 0 C24 2.31 24 4.62 24 7 C19.05 7 14.1 7 9 7 C9 8.98 9 10.96 9 13 C12.96 13 16.92 13 21 13 C21 14.98 21 16.96 21 19 C17.04 19 13.08 19 9 19 C9 21.31 9 23.62 9 26 C13.95 26 18.9 26 24 26 C24 28.31 24 30.62 24 33 C16.08 33 8.16 33 0 33 C0 22.11 0 11.22 0 0 Z " fill="#1C42FA" transform="translate(130,287)"/>
<path d="M0 0 C7.92 0 15.84 0 24 0 C24 2.31 24 4.62 24 7 C19.05 7 14.1 7 9 7 C9 8.98 9 10.96 9 13 C12.96 13 16.92 13 21 13 C21 14.98 21 16.96 21 19 C17.04 19 13.08 19 9 19 C9 21.31 9 23.62 9 26 C13.62 26 18.24 26 23 26 C23 28.31 23 30.62 23 33 C15.41 33 7.82 33 0 33 C0 22.11 0 11.22 0 0 Z " fill="#1A41FA" transform="translate(348,287)"/>
<path d="M0 0 C3.90719475 1.98911733 6.83161093 4.14508609 9 8 C9 9.32 9 10.64 9 12 C6.36 12 3.72 12 1 12 C0.67 11.01 0.34 10.02 0 9 C-2.73247348 7.63376326 -4.98198902 7.871574 -8 8 C-9.75559942 9.75559942 -9.13221919 12.03582442 -9.13671875 14.37109375 C-9.13285156 15.07363281 -9.12898437 15.77617187 -9.125 16.5 C-9.12886719 17.20253906 -9.13273438 17.90507812 -9.13671875 18.62890625 C-9.44390931 22.10428808 -9.44390931 22.10428808 -8 25 C-5.08391002 25.33361919 -5.08391002 25.33361919 -2 25 C-1.54625 24.505 -1.0925 24.01 -0.625 23.5 C1.4534696 21.58141268 2.41201878 21.79791779 5.1875 21.8125 C7.0746875 21.9053125 7.0746875 21.9053125 9 22 C7.53658537 28.46341463 7.53658537 28.46341463 5.125 30.875 C0.39441497 33.37942737 -4.74858613 33.6473097 -10 33 C-13.57444856 31.27896921 -15.46966849 29.68943097 -17.875 26.5625 C-19.7780162 20.53628204 -20.20422711 13.80043717 -18.2734375 7.70703125 C-14.23550805 0.00870235 -8.04688852 -1.17350458 0 0 Z " fill="#163DFA" transform="translate(184,287)"/>
<path d="M0 0 C3.72023456 2.32418778 4.69072343 3.54644193 5.76953125 7.93359375 C5.79015625 8.98546875 5.81078125 10.03734375 5.83203125 11.12109375 C3.19203125 11.12109375 0.55203125 11.12109375 -2.16796875 11.12109375 C-2.16796875 9.80109375 -2.16796875 8.48109375 -2.16796875 7.12109375 C-5.46796875 7.12109375 -8.76796875 7.12109375 -12.16796875 7.12109375 C-12.1948856 9.5794998 -12.21476677 12.03761257 -12.23046875 14.49609375 C-12.23884766 15.19476563 -12.24722656 15.8934375 -12.25585938 16.61328125 C-12.35151295 20.49404751 -12.35151295 20.49404751 -11.16796875 24.12109375 C-7.75154116 24.37125248 -7.75154116 24.37125248 -4.16796875 24.12109375 C-3.50796875 23.13109375 -2.84796875 22.14109375 -2.16796875 21.12109375 C-0.22265625 20.828125 -0.22265625 20.828125 1.95703125 20.93359375 C3.23578125 20.99546875 4.51453125 21.05734375 5.83203125 21.12109375 C5.5641525 25.04998204 5.30766028 26.66985596 2.39453125 29.43359375 C-2.66177114 32.76335386 -7.19268435 32.87959248 -13.16796875 32.12109375 C-17.08755617 30.19595258 -19.62411107 27.17804713 -21.16796875 23.12109375 C-21.50390625 19.66015625 -21.50390625 19.66015625 -21.54296875 15.74609375 C-21.57132812 14.45960938 -21.5996875 13.173125 -21.62890625 11.84765625 C-20.9934052 6.70979182 -18.88510607 3.63621492 -15.04296875 0.24609375 C-10.09045771 -1.69184535 -4.99419522 -2.02467374 0 0 Z " fill="#143BFA" transform="translate(444.16796875,287.87890625)"/>
<path d="M0 0 C1.98 0 3.96 0 6 0 C13 13.51724138 13 13.51724138 13 19 C11.02 19 9.04 19 7 19 C7 18.01 7 17.02 7 16 C4.69 16 2.38 16 0 16 C-0.33 16.99 -0.66 17.98 -1 19 C-2.65 19 -4.3 19 -6 19 C-4.70024676 12.28460827 -2.70071112 6.27980887 0 0 Z " fill="#2183FF" transform="translate(300,336)"/>
<path d="M0 0 C0.99 0.66 1.98 1.32 3 2 C3 2.99 3 3.98 3 5 C-0.19902639 5.08886184 -2.92677456 4.91058531 -6 4 C-6 4.66 -6 5.32 -6 6 C-5.44570313 6.26554687 -4.89140625 6.53109375 -4.3203125 6.8046875 C-3.59585937 7.15789062 -2.87140625 7.51109375 -2.125 7.875 C-1.04605469 8.39707031 -1.04605469 8.39707031 0.0546875 8.9296875 C2 10 2 10 4 12 C3.9375 14.4375 3.9375 14.4375 3 17 C0.01179242 19.63665375 -1.55938512 20.00773009 -5.5625 19.9375 C-9.25897947 18.92936924 -10.70989193 18.02294265 -13 15 C-13 14.34 -13 13.68 -13 13 C-11.02 13 -9.04 13 -7 13 C-6.67 13.66 -6.34 14.32 -6 15 C-5.01 15 -4.02 15 -3 15 C-3 14.34 -3 13.68 -3 13 C-3.56589844 12.72285156 -4.13179688 12.44570313 -4.71484375 12.16015625 C-5.44832031 11.79792969 -6.18179687 11.43570312 -6.9375 11.0625 C-8.03384766 10.52302734 -8.03384766 10.52302734 -9.15234375 9.97265625 C-11 9 -11 9 -12 8 C-12.375 5.125 -12.375 5.125 -12 2 C-8.13002123 -1.6354346 -4.95792786 -1.19357523 0 0 Z " fill="#197FFF" transform="translate(276,336)"/>
<path d="M0 0 C4.95 0 9.9 0 15 0 C15 1.32 15 2.64 15 4 C12.03 4 9.06 4 6 4 C6 4.99 6 5.98 6 7 C8.31 7 10.62 7 13 7 C13 8.32 13 9.64 13 11 C10.36 11 7.72 11 5 11 C5 12.32 5 13.64 5 15 C7.97 15 10.94 15 14 15 C14 16.32 14 17.64 14 19 C9.38 19 4.76 19 0 19 C0 12.73 0 6.46 0 0 Z " fill="#147CFF" transform="translate(387,336)"/>
<path d="M0 0 C4.62 0 9.24 0 14 0 C14 1.32 14 2.64 14 4 C11.03 4 8.06 4 5 4 C5 4.99 5 5.98 5 7 C7.64 7 10.28 7 13 7 C13 8.32 13 9.64 13 11 C10.36 11 7.72 11 5 11 C5 12.32 5 13.64 5 15 C7.97 15 10.94 15 14 15 C14 16.32 14 17.64 14 19 C9.38 19 4.76 19 0 19 C0 12.73 0 6.46 0 0 Z " fill="#107AFF" transform="translate(215,336)"/>
<path d="M0 0 C3.375 0.25 3.375 0.25 7 1 C9.74448375 5.02346646 9.52508308 9.31592554 9 14 C7.875 17.0625 7.875 17.0625 6 19 C3 19.5625 3 19.5625 0 19 C-2.16777067 16.79660869 -2.93742721 15.41715192 -3.3984375 12.34375 C-3.39070312 11.4053125 -3.38296875 10.466875 -3.375 9.5 C-3.38273438 8.5615625 -3.39046875 7.623125 -3.3984375 6.65625 C-2.94552484 3.63683226 -2.00855276 2.25297982 0 0 Z " fill="#EEF3FE" transform="translate(217,294)"/>
<path d="M0 0 C1.31677734 0.00580078 1.31677734 0.00580078 2.66015625 0.01171875 C4.9375 0.3125 4.9375 0.3125 6.9375 2.3125 C6.9375 3.3025 6.9375 4.2925 6.9375 5.3125 C5.2875 5.3125 3.6375 5.3125 1.9375 5.3125 C1.9375 4.6525 1.9375 3.9925 1.9375 3.3125 C-0.03786745 3.66036708 -0.03786745 3.66036708 -2.0625 4.3125 C-2.3925 4.9725 -2.7225 5.6325 -3.0625 6.3125 C-1.4228125 6.7146875 -1.4228125 6.7146875 0.25 7.125 C5.40251129 8.7842833 5.40251129 8.7842833 6.9375 11.3125 C7.25 14.375 7.25 14.375 6.9375 17.3125 C4.42737037 19.82262963 3.46944763 19.60971609 0 19.625 C-1.31291016 19.65013672 -1.31291016 19.65013672 -2.65234375 19.67578125 C-5.0625 19.3125 -5.0625 19.3125 -6.87890625 17.98046875 C-8.0625 16.3125 -8.0625 16.3125 -8.0625 13.3125 C-6.4125 13.3125 -4.7625 13.3125 -3.0625 13.3125 C-3.0625 13.9725 -3.0625 14.6325 -3.0625 15.3125 C-1.4125 15.3125 0.2375 15.3125 1.9375 15.3125 C0.01571328 13.17718142 -1.68112495 11.94132503 -4.1875 10.4375 C-7.0625 8.3125 -7.0625 8.3125 -8.125 5.75 C-8.0625 3.3125 -8.0625 3.3125 -6.875 1.6796875 C-4.47874404 -0.12783316 -2.97340659 -0.05692826 0 0 Z " fill="#0E78FF" transform="translate(364.0625,335.6875)"/>
<path d="M0 0 C1.65 0 3.3 0 5 0 C5 4.95 5 9.9 5 15 C7.64 15 10.28 15 13 15 C13 16.32 13 17.64 13 19 C8.71 19 4.42 19 0 19 C0 12.73 0 6.46 0 0 Z " fill="#117BFF" transform="translate(328,336)"/>
<path d="M0 0 C3.96 0 7.92 0 12 0 C12 10.89 12 21.78 12 33 C9.03 33 6.06 33 3 33 C2.80586117 29.70860012 2.61939524 26.41707931 2.4375 23.125 C2.38142578 22.18785156 2.32535156 21.25070312 2.26757812 20.28515625 C2.21923828 19.38925781 2.17089844 18.49335938 2.12109375 17.5703125 C2.0739624 16.74289551 2.02683105 15.91547852 1.97827148 15.06298828 C2 13 2 13 3 11 C3.66 11 4.32 11 5 11 C4.67 17.93 4.34 24.86 4 32 C6.31 32 8.62 32 11 32 C11 21.77 11 11.54 11 1 C7.7 1 4.4 1 1 1 C0.80664062 1.75925781 0.61328125 2.51851563 0.4140625 3.30078125 C0.02347656 4.79158203 0.02347656 4.79158203 -0.375 6.3125 C-0.75785156 7.79169922 -0.75785156 7.79169922 -1.1484375 9.30078125 C-2 12 -2 12 -4 15 C-3.43179252 9.54520815 -2.05362055 5.08940744 0 0 Z " fill="#5D79FB" transform="translate(272,287)"/>
<path d="M0 0 C3.375 -0.125 3.375 -0.125 7 0 C9 2 9 2 9.125 4.625 C9.08375 5.40875 9.0425 6.1925 9 7 C6.04335481 8.4783226 3.25770263 8.06032783 0 8 C0 5.36 0 2.72 0 0 Z " fill="#E7EDFE" transform="translate(392,294)"/>
<path d="M0 0 C0.66 0 1.32 0 2 0 C1.67 6.93 1.34 13.86 1 21 C3.64 21 6.28 21 9 21 C9 21.33 9 21.66 9 22 C6.03 22 3.06 22 0 22 C-0.19413883 18.70860012 -0.38060476 15.41707931 -0.5625 12.125 C-0.61857422 11.18785156 -0.67464844 10.25070312 -0.73242188 9.28515625 C-0.78076172 8.38925781 -0.82910156 7.49335938 -0.87890625 6.5703125 C-0.9260376 5.74289551 -0.97316895 4.91547852 -1.02172852 4.06298828 C-1 2 -1 2 0 0 Z " fill="#6680FC" transform="translate(275,298)"/>
<path d="M0 0 C1.32 0 2.64 0 4 0 C4 0.66 4 1.32 4 2 C5.65 2 7.3 2 9 2 C9.33 1.34 9.66 0.68 10 0 C10 0.99 10 1.98 10 3 C8.35 3 6.7 3 5 3 C5 3.66 5 4.32 5 5 C3.02 4.34 1.04 3.68 -1 3 C-0.67 2.01 -0.34 1.02 0 0 Z " fill="#B2D5FF" transform="translate(362,339)"/>
<path d="M0 0 C4.455 0.99 4.455 0.99 9 2 C9.33 1.34 9.66 0.68 10 0 C10 0.99 10 1.98 10 3 C9.21625 3.144375 8.4325 3.28875 7.625 3.4375 C5.03578982 3.87798925 5.03578982 3.87798925 3 5 C0.875 4.0625 0.875 4.0625 -1 3 C-0.67 2.01 -0.34 1.02 0 0 Z " fill="#B7D8FF" transform="translate(270,339)"/>
<path d="M0 0 C0.99 0.495 0.99 0.495 2 1 C2.625 4.0625 2.625 4.0625 3 7 C2.34 7 1.68 7 1 7 C1 10.63 1 14.26 1 18 C0.67 18 0.34 18 0 18 C0 12.06 0 6.12 0 0 Z " fill="#B3C1FD" transform="translate(306,302)"/>
<path d="M0 0 C-0.33 0.99 -0.66 1.98 -1 3 C-2.32 2.67 -3.64 2.34 -5 2 C-5 1.34 -5 0.68 -5 0 C-6.98 0 -8.96 0 -11 0 C-11 -0.33 -11 -0.66 -11 -1 C-6.58937864 -2.0257259 -4.07369424 -2.03684712 0 0 Z " fill="#D4E8FF" transform="translate(274,349)"/>
<path d="M0 0 C0 0.66 0 1.32 0 2 C-1.65 2 -3.3 2 -5 2 C-5 1.34 -5 0.68 -5 0 C-6.65 0 -8.3 0 -10 0 C-10 -0.33 -10 -0.66 -10 -1 C-5.94568308 -2.15837626 -3.78187881 -1.83691257 0 0 Z " fill="#E6F2FF" transform="translate(366,349)"/>
</svg>
